<?xml version="1.0" encoding="UTF-8" standalone="no"?>
<!DOCTYPE svg PUBLIC "-//W3C//DTD SVG 1.1//EN"
 "http://www.w3.org/Graphics/SVG/1.1/DTD/svg11.dtd">
<!-- Generated by graphviz version 2.43.0 (0)
 -->
<!-- Title: g Pages: 1 -->
<svg width="143pt" height="386pt"
 viewBox="0.00 0.00 143.00 386.00" xmlns="http://www.w3.org/2000/svg" xmlns:xlink="http://www.w3.org/1999/xlink">
<g id="graph0" class="graph" transform="scale(1 1) rotate(0) translate(4 382)">
<title>g</title>
<polygon fill="white" stroke="transparent" points="-4,4 -4,-382 139,-382 139,4 -4,4"/>
<!-- 0 -->
<g id="node1" class="node">
<title>0</title>
<ellipse fill="none" stroke="black" cx="59" cy="-287" rx="18" ry="18"/>
<text text-anchor="middle" x="59" y="-283.3" font-family="Times,serif" font-size="14.00">0</text>
</g>
<!-- 0&#45;&gt;0 -->
<g id="edge3" class="edge">
<title>0&#45;&gt;0</title>
<path fill="none" stroke="black" d="M76.04,-293.38C85.86,-294.68 95,-292.55 95,-287 95,-283.53 91.43,-281.4 86.35,-280.6"/>
<polygon fill="black" stroke="black" points="86.03,-277.1 76.04,-280.62 86.04,-284.1 86.03,-277.1"/>
<text text-anchor="middle" x="100" y="-283.3" font-family="Times,serif" font-size="14.00">b</text>
</g>
<!-- 1 -->
<g id="node3" class="node">
<title>1</title>
<ellipse fill="none" stroke="black" cx="18" cy="-200" rx="18" ry="18"/>
<text text-anchor="middle" x="18" y="-196.3" font-family="Times,serif" font-size="14.00">1</text>
</g>
<!-- 0&#45;&gt;1 -->
<g id="edge2" class="edge">
<title>0&#45;&gt;1</title>
<path fill="none" stroke="black" d="M51.48,-270.41C45.47,-257.95 36.93,-240.24 29.98,-225.84"/>
<polygon fill="black" stroke="black" points="32.97,-223.98 25.47,-216.49 26.66,-227.02 32.97,-223.98"/>
<text text-anchor="middle" x="45.5" y="-239.8" font-family="Times,serif" font-size="14.00">a</text>
</g>
<!-- i0 -->
<!-- i0&#45;&gt;0 -->
<g id="edge1" class="edge">
<title>i0&#45;&gt;0</title>
<path fill="none" stroke="black" d="M59,-341.81C59,-333.79 59,-324.05 59,-315.07"/>
<polygon fill="black" stroke="black" points="62.5,-315.03 59,-305.03 55.5,-315.03 62.5,-315.03"/>
</g>
<!-- 1&#45;&gt;1 -->
<g id="edge5" class="edge">
<title>1&#45;&gt;1</title>
<path fill="none" stroke="black" d="M34.66,-207.38C44.62,-209.02 54,-206.56 54,-200 54,-195.8 50.15,-193.28 44.77,-192.44"/>
<polygon fill="black" stroke="black" points="44.6,-188.94 34.66,-192.62 44.72,-195.94 44.6,-188.94"/>
<text text-anchor="middle" x="58.5" y="-196.3" font-family="Times,serif" font-size="14.00">a</text>
</g>
<!-- 2 -->
<g id="node4" class="node">
<title>2</title>
<ellipse fill="none" stroke="black" cx="58" cy="-113" rx="18" ry="18"/>
<text text-anchor="middle" x="58" y="-109.3" font-family="Times,serif" font-size="14.00">2</text>
</g>
<!-- 1&#45;&gt;2 -->
<g id="edge4" class="edge">
<title>1&#45;&gt;2</title>
<path fill="none" stroke="black" d="M25.34,-183.41C31.2,-170.95 39.53,-153.24 46.31,-138.84"/>
<polygon fill="black" stroke="black" points="49.62,-140.03 50.71,-129.49 43.29,-137.05 49.62,-140.03"/>
<text text-anchor="middle" x="46" y="-152.8" font-family="Times,serif" font-size="14.00">b</text>
</g>
<!-- 2&#45;&gt;0 -->
<g id="edge7" class="edge">
<title>2&#45;&gt;0</title>
<path fill="none" stroke="black" d="M62.41,-130.62C65.8,-144.3 70.19,-164.25 72,-182 73.62,-197.92 73.51,-202.07 72,-218 70.69,-231.84 67.91,-247.04 65.26,-259.56"/>
<polygon fill="black" stroke="black" points="61.83,-258.84 63.09,-269.36 68.67,-260.35 61.83,-258.84"/>
<text text-anchor="middle" x="78" y="-196.3" font-family="Times,serif" font-size="14.00">b</text>
</g>
<!-- 3 -->
<g id="node5" class="node">
<title>3</title>
<ellipse fill="none" stroke="black" cx="58" cy="-22" rx="18" ry="18"/>
<ellipse fill="none" stroke="black" cx="58" cy="-22" rx="22" ry="22"/>
<text text-anchor="middle" x="58" y="-18.3" font-family="Times,serif" font-size="14.00">3</text>
</g>
<!-- 2&#45;&gt;3 -->
<g id="edge6" class="edge">
<title>2&#45;&gt;3</title>
<path fill="none" stroke="black" d="M58,-94.84C58,-83.44 58,-68.13 58,-54.58"/>
<polygon fill="black" stroke="black" points="61.5,-54.19 58,-44.19 54.5,-54.19 61.5,-54.19"/>
<text text-anchor="middle" x="62.5" y="-65.8" font-family="Times,serif" font-size="14.00">a</text>
</g>
<!-- 3&#45;&gt;3 -->
<g id="edge8" class="edge">
<title>3&#45;&gt;3</title>
<path fill="none" stroke="black" d="M79.81,-26.25C89.56,-26.65 98,-25.23 98,-22 98,-19.98 94.7,-18.67 89.85,-18.07"/>
<polygon fill="black" stroke="black" points="89.91,-14.57 79.81,-17.75 89.69,-21.56 89.91,-14.57"/>
<text text-anchor="middle" x="103" y="-18.3" font-family="Times,serif" font-size="14.00">b</text>
</g>
<!-- 3&#45;&gt;3 -->
<g id="edge9" class="edge">
<title>3&#45;&gt;3</title>
<path fill="none" stroke="black" d="M78.81,-29.2C96.88,-32.49 116,-30.09 116,-22 116,-15.43 103.38,-12.61 88.96,-13.55"/>
<polygon fill="black" stroke="black" points="88.31,-10.1 78.81,-14.8 89.17,-17.05 88.31,-10.1"/>
<text text-anchor="middle" x="120.5" y="-18.3" font-family="Times,serif" font-size="14.00">a</text>
</g>
</g>
</svg>
