<?xml version="1.0" encoding="UTF-8" standalone="no"?>
<!DOCTYPE svg PUBLIC "-//W3C//DTD SVG 1.1//EN"
 "http://www.w3.org/Graphics/SVG/1.1/DTD/svg11.dtd">
<!-- Generated by graphviz version 2.43.0 (0)
 -->
<!-- Title: g Pages: 1 -->
<svg width="111pt" height="386pt"
 viewBox="0.00 0.00 111.00 386.00" xmlns="http://www.w3.org/2000/svg" xmlns:xlink="http://www.w3.org/1999/xlink">
<g id="graph0" class="graph" transform="scale(1 1) rotate(0) translate(4 382)">
<title>g</title>
<polygon fill="white" stroke="transparent" points="-4,4 -4,-382 107,-382 107,4 -4,4"/>
<!-- 0 -->
<g id="node1" class="node">
<title>0</title>
<ellipse fill="none" stroke="black" cx="54" cy="-287" rx="18" ry="18"/>
<text text-anchor="middle" x="54" y="-283.3" font-family="Times,serif" font-size="14.00">0</text>
</g>
<!-- 0&#45;&gt;0 -->
<g id="edge3" class="edge">
<title>0&#45;&gt;0</title>
<path fill="none" stroke="black" d="M71.04,-293.38C80.86,-294.68 90,-292.55 90,-287 90,-283.53 86.43,-281.4 81.35,-280.6"/>
<polygon fill="black" stroke="black" points="81.03,-277.1 71.04,-280.62 81.04,-284.1 81.03,-277.1"/>
<text text-anchor="middle" x="94.5" y="-283.3" font-family="Times,serif" font-size="14.00">a</text>
</g>
<!-- 1 -->
<g id="node3" class="node">
<title>1</title>
<ellipse fill="none" stroke="black" cx="18" cy="-200" rx="18" ry="18"/>
<text text-anchor="middle" x="18" y="-196.3" font-family="Times,serif" font-size="14.00">1</text>
</g>
<!-- 0&#45;&gt;1 -->
<g id="edge2" class="edge">
<title>0&#45;&gt;1</title>
<path fill="none" stroke="black" d="M47.23,-270.01C42,-257.66 34.66,-240.35 28.65,-226.15"/>
<polygon fill="black" stroke="black" points="31.86,-224.76 24.74,-216.92 25.42,-227.49 31.86,-224.76"/>
<text text-anchor="middle" x="44" y="-239.8" font-family="Times,serif" font-size="14.00">b</text>
</g>
<!-- i0 -->
<!-- i0&#45;&gt;0 -->
<g id="edge1" class="edge">
<title>i0&#45;&gt;0</title>
<path fill="none" stroke="black" d="M54,-341.81C54,-333.79 54,-324.05 54,-315.07"/>
<polygon fill="black" stroke="black" points="57.5,-315.03 54,-305.03 50.5,-315.03 57.5,-315.03"/>
</g>
<!-- 1&#45;&gt;1 -->
<g id="edge5" class="edge">
<title>1&#45;&gt;1</title>
<path fill="none" stroke="black" d="M34.66,-207.38C44.62,-209.02 54,-206.56 54,-200 54,-195.8 50.15,-193.28 44.77,-192.44"/>
<polygon fill="black" stroke="black" points="44.6,-188.94 34.66,-192.62 44.72,-195.94 44.6,-188.94"/>
<text text-anchor="middle" x="58.5" y="-196.3" font-family="Times,serif" font-size="14.00">a</text>
</g>
<!-- 2 -->
<g id="node4" class="node">
<title>2</title>
<ellipse fill="none" stroke="black" cx="18" cy="-113" rx="18" ry="18"/>
<text text-anchor="middle" x="18" y="-109.3" font-family="Times,serif" font-size="14.00">2</text>
</g>
<!-- 1&#45;&gt;2 -->
<g id="edge4" class="edge">
<title>1&#45;&gt;2</title>
<path fill="none" stroke="black" d="M18,-181.8C18,-170.16 18,-154.55 18,-141.24"/>
<polygon fill="black" stroke="black" points="21.5,-141.18 18,-131.18 14.5,-141.18 21.5,-141.18"/>
<text text-anchor="middle" x="23" y="-152.8" font-family="Times,serif" font-size="14.00">b</text>
</g>
<!-- 2&#45;&gt;2 -->
<g id="edge7" class="edge">
<title>2&#45;&gt;2</title>
<path fill="none" stroke="black" d="M34.66,-120.38C44.62,-122.02 54,-119.56 54,-113 54,-108.8 50.15,-106.28 44.77,-105.44"/>
<polygon fill="black" stroke="black" points="44.6,-101.94 34.66,-105.62 44.72,-108.94 44.6,-101.94"/>
<text text-anchor="middle" x="58.5" y="-109.3" font-family="Times,serif" font-size="14.00">a</text>
</g>
<!-- 3 -->
<g id="node5" class="node">
<title>3</title>
<ellipse fill="none" stroke="black" cx="54" cy="-22" rx="18" ry="18"/>
<ellipse fill="none" stroke="black" cx="54" cy="-22" rx="22" ry="22"/>
<text text-anchor="middle" x="54" y="-18.3" font-family="Times,serif" font-size="14.00">3</text>
</g>
<!-- 2&#45;&gt;3 -->
<g id="edge6" class="edge">
<title>2&#45;&gt;3</title>
<path fill="none" stroke="black" d="M24.44,-96.09C29.33,-83.98 36.21,-66.98 42.1,-52.42"/>
<polygon fill="black" stroke="black" points="45.48,-53.41 45.98,-42.82 38.99,-50.78 45.48,-53.41"/>
<text text-anchor="middle" x="44" y="-65.8" font-family="Times,serif" font-size="14.00">b</text>
</g>
<!-- 3&#45;&gt;0 -->
<g id="edge9" class="edge">
<title>3&#45;&gt;0</title>
<path fill="none" stroke="black" d="M60.47,-43.23C64.69,-57.53 69.81,-77.22 72,-95 78.68,-149.26 79.05,-163.79 72,-218 70.17,-232.1 66.28,-247.43 62.58,-259.97"/>
<polygon fill="black" stroke="black" points="59.17,-259.16 59.57,-269.75 65.86,-261.22 59.17,-259.16"/>
<text text-anchor="middle" x="82" y="-152.8" font-family="Times,serif" font-size="14.00">b</text>
</g>
<!-- 3&#45;&gt;3 -->
<g id="edge8" class="edge">
<title>3&#45;&gt;3</title>
<path fill="none" stroke="black" d="M74.58,-30.37C84.84,-31.53 94,-28.74 94,-22 94,-17.68 90.24,-14.99 84.84,-13.91"/>
<polygon fill="black" stroke="black" points="84.67,-10.41 74.58,-13.63 84.48,-17.4 84.67,-10.41"/>
<text text-anchor="middle" x="98.5" y="-18.3" font-family="Times,serif" font-size="14.00">a</text>
</g>
</g>
</svg>
